<?xml version="1.0" encoding="UTF-8"?>
<svg id="SVGDoc" width="145" height="32" xmlns="http://www.w3.org/2000/svg" version="1.1" xmlns:xlink="http://www.w3.org/1999/xlink" xmlns:avocode="https://avocode.com/" viewBox="0 0 145 32"><defs></defs><desc>Generated with Avocode.</desc><g><g><title>&lt;Path&gt;</title><path d="M143.912,27.2255v0h-0.02c-0.437,-0.005 -1.94,-0.019 -2.94,0.022c-0.121,0.003 -0.159,-0.008 -0.159,-0.008c-0.003,-0.002 -0.043,-0.035 -0.117,-0.205c-1.55,-3.588 -3.143,-7.227 -4.692,-10.766l-0.723,-1.652c-1.979,-4.525 -5.723,-13.094 -5.723,-13.094c-0.005,-0.011 -0.548,-1.218 -1.204,-1.355c-0.271,-0.058 -0.723,-0.074 -1.028,-0.061c-0.034,0.002 -0.839,0.034 -1.464,-0.023c-1.08,-0.095 -1.506,0.546 -1.754,1.114c-3.754,8.628 -11.08,25.386 -11.08,25.386c-0.061,0.14 -0.168,0.344 -0.273,0.524h-21.37v0v-10.032v0h11.948c0.665,0 1.206,-0.541 1.206,-1.206v-1.489c0,-0.665 -0.541,-1.205 -1.206,-1.205h-11.96v0v-9.08v0h13.556v0v2.194c0,0.665 0.541,1.206 1.206,1.206h2.032c0.665,0 1.206,-0.541 1.206,-1.206v-4.906c0,-0.665 -0.541,-1.206 -1.206,-1.206h-24.324c-0.664,0 -1.205,0.541 -1.205,1.206v1.369c0,0.665 0.541,1.206 1.205,1.206h2.746v0v23.344v0h-2.757c-0.665,0 -1.206,0.541 -1.206,1.205v1.301c0,0.664 0.541,1.205 1.206,1.205h25.595c0.058,0.008 0.116,0.015 0.174,0.012c0.03,0 3.329,-0.018 5.206,0.017h0.016c0.853,0 1.208,-0.437 1.272,-0.525c0.193,-0.273 0.451,-0.728 0.586,-1.037l10.064,-23.052v0l3.587,8.175c2.059,4.693 4.118,9.386 6.178,14.079c0.069,0.155 0.13,0.333 0.196,0.524c0.199,0.573 0.423,1.222 0.967,1.581c0.403,0.265 0.878,0.296 1.2,0.296c0.21,0 0.427,-0.015 0.641,-0.031c0.197,-0.014 0.383,-0.026 0.553,-0.027c1.439,0.01 3.82,0.004 3.857,0.004c0.664,-0.001 1.204,-0.543 1.204,-1.207v-1.384c0,-0.659 -0.536,-1.204 -1.196,-1.213z" fill="#005375" fill-opacity="1"></path></g><g><title>&lt;Path&gt;</title><path d="M50.4761,27.2438v0h-2.777v0v-23.334v0h2.77c0.665,0 1.206,-0.541 1.206,-1.206v-1.319c0,-0.665 -0.541,-1.206 -1.206,-1.206h-7.867c-0.103,-0.028 -0.21,-0.048 -0.321,-0.048c-0.086,0 -9.756,0.019 -11.608,-0.016c-0.854,-0.019 -1.234,0.436 -1.296,0.525c-0.195,0.274 -0.453,0.729 -0.587,1.037l-10.064,23.052v0l-3.486,-7.945c-2.093,-4.769 -4.185,-9.54 -6.28,-14.309c-0.065,-0.15 -0.125,-0.323 -0.196,-0.525c-0.198,-0.573 -0.423,-1.222 -0.966,-1.58c-0.548,-0.361 -1.236,-0.311 -1.842,-0.266c-0.199,0.015 -0.386,0.024 -0.552,0.027c-2.502,-0.017 -3.454,-0.023 -3.856,0.015l-0.001,-0.019c-0.664,0.001 -1.204,0.543 -1.204,1.207v1.384c0,0.66 0.536,1.204 1.195,1.213c0.017,0.001 1.813,0.025 2.962,-0.022c0.121,-0.006 0.157,0.007 0.159,0.007c0.005,0.004 0.043,0.039 0.116,0.207c1.493,3.456 3.028,6.965 4.513,10.359l0.901,2.059c1.98,4.525 5.724,13.093 5.724,13.093c0.005,0.012 0.548,1.219 1.204,1.356c0.272,0.056 0.722,0.073 1.033,0.06c0,0 0.83,-0.034 1.459,0.024c0.076,0.006 0.147,0.01 0.215,0.01c0.929,0 1.31,-0.601 1.539,-1.125c3.754,-8.627 11.08,-25.385 11.08,-25.385c0.077,-0.177 0.228,-0.456 0.353,-0.66c0.027,-0.002 0.061,-0.003 0.106,-0.002c0.77,0.023 4.608,0.023 7.203,0.021c0.02,0.001 0.038,0.006 0.058,0.006h2.742v0v23.342v0h-2.753c-0.664,0 -1.205,0.541 -1.205,1.206v1.334c0,0.665 0.541,1.206 1.205,1.206h10.324c0.665,0 1.206,-0.541 1.206,-1.206v-1.371c0,-0.665 -0.541,-1.206 -1.206,-1.206z" fill="#005375" fill-opacity="1"></path></g><g><title>&lt;Path&gt;</title><path d="M73.8888,15.082c-1.628,-0.552 -3.292,-1.077 -4.901,-1.584l-0.151,0.478v0l0.103,-0.493c-1.097,-0.346 -2.195,-0.692 -3.289,-1.048c-1.452,-0.474 -2.851,-0.975 -3.998,-1.898c-0.76,-0.612 -1.185,-1.439 -1.196,-2.328c-0.01,-0.881 0.389,-1.708 1.124,-2.328c0.487,-0.41 0.954,-0.7 1.389,-0.861c3.478,-1.29 6.974,-1.184 10.388,0.316c1.093,0.479 1.275,0.955 1.22,1.615c-0.008,0.104 -0.002,0.658 -0.002,0.658v0l-0.004,0.709c0,0.665 0.541,1.206 1.206,1.206h2.079c0.665,0 1.206,-0.541 1.206,-1.206v-1.719c0.009,-0.236 0.018,-0.415 0.023,-0.512l0.003,-0.083c0.088,-2.286 -1.515,-3.362 -2.728,-3.972c-0.071,-0.036 -0.141,-0.076 -0.211,-0.116c-0.084,-0.048 -0.168,-0.096 -0.255,-0.141c-3.064,-1.565 -6.565,-2.107 -10.707,-1.657c-2.562,0.279 -4.624,1.045 -6.303,2.343c-1.827,1.41 -2.895,3.545 -2.931,5.857c-0.033,2.164 0.875,4.167 2.491,5.497c1.101,0.906 2.386,1.646 3.718,2.139c1.583,0.587 3.214,1.104 4.808,1.61c1.162,0.369 2.48,0.786 3.723,1.221c1.297,0.453 2.656,0.974 3.814,1.709c0.768,0.486 1.247,1.218 1.349,2.062c0.109,0.889 -0.22,1.808 -0.902,2.521c-0.359,0.375 -0.845,0.738 -1.443,1.079c-1.013,0.574 -2.21,0.908 -3.766,1.048c-3.623,0.328 -6.624,-0.248 -9.175,-1.761c-0.256,-0.153 -0.282,-0.229 -0.275,-0.467c0.023,-0.8 0.015,-1.249 0.004,-1.829l-0.003,-0.464c0,-0.666 -0.541,-1.206 -1.206,-1.206h-2.08c-0.664,0 -1.205,0.54 -1.205,1.205v1.184c0,0.066 0.004,0.119 0.011,0.164c0.007,0.879 0.016,1.685 0.041,2.789c0.011,0.465 0.352,0.923 0.683,1.134c0.267,0.172 0.533,0.349 0.804,0.531c0.803,0.536 1.633,1.09 2.548,1.486c2.373,1.026 4.911,1.525 7.758,1.525c1.185,0 2.441,-0.09 3.733,-0.267c2.543,-0.35 4.582,-1.173 6.235,-2.515c1.658,-1.348 2.665,-3.393 2.762,-5.612c0.091,-2.107 -0.668,-4.1 -2.083,-5.47c-1.128,-1.092 -2.571,-1.926 -4.409,-2.549z" fill="#005375" fill-opacity="1"></path></g></g></svg>